<?xml version="1.0" encoding="UTF-8"?>
<svg width="90px" height="90px" viewBox="0 0 90 90" version="1.1" xmlns="http://www.w3.org/2000/svg" xmlns:xlink="http://www.w3.org/1999/xlink">
    <title>Fill 1</title>
    <g id="In-App-Icons" stroke="none" stroke-width="1" fill="none" fill-rule="evenodd">
        <path d="M45,0 C20.184,0 0,20.184 0,45 C0,69.816 20.184,90 45,90 C69.816,90 90.0003182,69.816 90.0003182,45 C90.01172,44.19531 89.69922,43.4219 89.13672,42.8516 C88.57422,42.27738 87.80472,41.95707 87.00002,41.95707 C86.19532,41.95707 85.42582,42.27738 84.86332,42.8516 C84.30082,43.42191 83.98832,44.1954 84.00004,45 C84.00004,66.574 66.57404,84 45.00004,84 C23.42604,84 6.00004,66.574 6.00004,45 C6.00004,23.426 23.42604,6 45.00004,6 C56.15204,6 66.30104,10.5898 73.43804,18 L65.40684,18 C64.60215,17.98828 63.82874,18.30078 63.25844,18.86328 C62.68422,19.42578 62.36391,20.19528 62.36391,20.99998 C62.36391,21.80468 62.68422,22.57418 63.25844,23.13668 C63.82875,23.69918 64.60224,24.01168 65.40684,23.99996 L79.81284,23.99996 C81.46904,23.99996 82.81284,22.65616 82.81284,20.99996 L82.81284,6.59396 C82.82846,5.77755 82.51206,4.98846 81.93393,4.41036 C81.3558,3.83226 80.56673,3.51583 79.75033,3.53145 C78.95345,3.54707 78.19953,3.87911 77.64873,4.45333 C77.09795,5.02755 76.79717,5.79713 76.81279,6.59393 L76.81279,12.87513 C68.61749,4.86343 57.30879,0 45.00079,0 L45,0 Z M43.75,20.75 C42.95312,20.76562 42.1992,21.09766 41.6484,21.67188 C41.09762,22.2461 40.79684,23.01568 40.81246,23.81248 L40.81246,47.37448 C40.81246,48.17136 41.12496,48.93698 41.68746,49.49948 L54.09346,61.93748 C55.26536,63.10938 57.17156,63.10938 58.34346,61.93748 C59.51536,60.76558 59.51536,58.85938 58.34346,57.68748 L46.81246,46.18748 L46.81246,23.81248 C46.82809,22.99607 46.51168,22.20698 45.93355,21.62888 C45.35542,21.05078 44.56635,20.73435 43.74995,20.74997 L43.75,20.75 Z" id="Fill-1" fill="#966FDB"></path>
    </g>
</svg>